<svg width="364" height="368" viewBox="0 0 364 368" fill="none" xmlns="http://www.w3.org/2000/svg">
<path d="M197.312 368C167.969 368 141.203 363.635 117.013 354.903C92.8229 346.316 71.9969 333.934 54.5345 317.76C37.072 301.585 23.6173 282.12 14.1704 259.361C4.72346 236.603 0 211.052 0 182.712V182.497C0 155.302 4.50875 130.539 13.5263 108.21C22.6869 85.8814 35.5691 66.6294 52.1727 50.4552C68.7764 34.2809 88.5294 21.8281 111.43 13.0969C134.476 4.36562 159.81 0 187.436 0C223.219 0 254.279 6.87049 280.616 20.6114C306.953 34.3524 327.35 53.7472 341.806 78.7959C356.263 103.701 363.492 132.901 363.492 166.395V166.609C363.492 188.652 360.199 207.904 353.615 224.364C347.174 240.825 338.085 253.563 326.348 262.581C314.611 271.599 300.798 276.108 284.91 276.108C271.885 276.108 260.291 273.388 250.129 267.949C239.966 262.509 232.165 254.924 226.726 245.19L223.506 239.393H221.788C215.776 251.99 207.689 261.579 197.526 268.164C187.507 274.748 175.841 278.04 162.53 278.04C148.217 278.04 135.549 274.176 124.528 266.446C113.506 258.573 104.847 247.552 98.5483 233.382C92.3937 219.068 89.316 202.321 89.316 183.142V182.926C89.316 165.321 92.5365 149.719 98.9783 136.122C105.419 122.523 114.151 111.86 125.171 104.131C136.193 96.4012 148.574 92.5369 162.315 92.5369C174.624 92.5369 185.36 95.471 194.52 101.339C203.824 107.208 210.695 115.367 215.132 125.816H216.85V97.9042H271.384V194.092C271.384 205.112 273.03 213.701 276.322 219.855C279.614 225.867 284.267 228.873 290.278 228.873C295.287 228.873 299.654 226.439 303.375 221.573C307.097 216.707 309.959 209.836 311.963 200.962C313.967 192.088 314.969 181.71 314.969 169.83V169.615C314.969 143.278 309.816 120.519 299.51 101.339C289.347 82.1599 274.748 67.345 255.711 56.8962C236.674 46.4474 213.915 41.2229 187.436 41.2229C166.681 41.2229 147.787 44.5865 130.754 51.3139C113.721 58.0413 99.0493 67.6313 86.7401 80.0841C74.5733 92.5369 65.1264 107.495 58.3991 124.957C51.8149 142.276 48.5228 161.599 48.5228 182.926V183.142C48.5228 213.343 54.7492 239.108 67.2019 260.434C79.7978 281.619 97.6181 297.793 120.663 308.957C143.851 320.122 171.404 325.704 203.323 325.704C211.626 325.704 219.856 325.274 228.014 324.416C236.173 323.557 244.26 322.268 252.275 320.551C260.291 318.833 268.163 316.687 275.893 314.11V355.763C263.297 359.913 250.558 362.99 237.676 364.994C224.794 366.998 211.339 368 197.312 368ZM180.995 229.517C189.582 229.517 196.453 225.581 201.606 217.709C206.758 209.836 209.335 198.958 209.335 185.074V184.215C209.335 170.76 206.687 160.24 201.391 152.653C196.238 144.924 189.439 141.06 180.995 141.06C175.269 141.06 170.259 142.777 165.965 146.212C161.671 149.648 158.307 154.657 155.874 161.242C153.584 167.683 152.439 175.555 152.439 184.859V185.074C152.439 194.377 153.584 202.393 155.874 209.12C158.307 215.705 161.671 220.786 165.965 224.364C170.259 227.799 175.269 229.517 180.995 229.517Z" fill="url(#paint0_linear_4_1001)" fill-opacity="0.05"/>
<path d="M187.436 0.438477C223.163 0.438482 254.151 7.29784 280.413 21C306.678 34.7035 327.013 54.0403 341.427 79.0146L341.428 79.0156C355.84 103.844 363.054 132.966 363.054 166.395V166.609C363.054 188.609 359.768 207.804 353.209 224.202L353.207 224.205C346.789 240.606 337.743 253.273 326.081 262.233C314.427 271.188 300.709 275.67 284.91 275.67C271.947 275.67 260.427 272.963 250.336 267.562C240.245 262.161 232.505 254.634 227.108 244.977L223.889 239.181L223.764 238.955H221.512L221.393 239.204C215.41 251.739 207.373 261.262 197.288 267.796L197.285 267.798C187.346 274.329 175.765 277.601 162.53 277.602C148.746 277.602 136.509 273.998 125.81 266.796L124.779 266.088C113.833 258.268 105.221 247.315 98.9502 233.209H98.9512C92.8248 218.961 89.7539 202.275 89.7539 183.142V182.927C89.7539 165.375 92.9644 149.839 99.374 136.31C105.586 123.194 113.931 112.835 124.403 105.218L125.423 104.489C136.369 96.8127 148.662 92.9746 162.315 92.9746C174.552 92.9746 185.203 95.8908 194.284 101.708L194.286 101.71C203.512 107.53 210.325 115.618 214.729 125.987L214.843 126.254H217.288V98.3418H270.945V194.092C270.945 204.801 272.494 213.273 275.627 219.47L275.936 220.062L275.938 220.066C279.294 226.194 284.081 229.311 290.277 229.312C295.454 229.312 299.939 226.787 303.723 221.839C307.496 216.904 310.378 209.967 312.39 201.059C314.403 192.145 315.407 181.733 315.407 169.83V169.615C315.407 143.222 310.243 120.389 299.896 101.134H299.897C289.695 81.8789 275.033 67.0016 255.921 56.5117C236.807 46.0206 213.972 40.7852 187.436 40.7852C166.633 40.7852 147.683 44.1561 130.593 50.9062C113.506 57.6549 98.7826 67.2785 86.4287 79.7764L86.4268 79.7783C74.2155 92.2768 64.7373 107.286 57.9902 124.8L57.9893 124.802C51.3836 142.177 48.085 161.555 48.085 182.927V183.142C48.085 213.403 54.3236 239.248 66.8232 260.655L66.8252 260.658C79.4666 281.919 97.3532 298.151 120.472 309.352H120.473C143.732 320.551 171.354 326.142 203.323 326.142C211.641 326.142 219.887 325.712 228.061 324.852C236.234 323.991 244.336 322.7 252.367 320.979C260.2 319.301 267.895 317.212 275.455 314.715V355.443C262.98 359.537 250.364 362.577 237.608 364.562C224.75 366.562 211.318 367.562 197.312 367.562C168.013 367.562 141.298 363.203 117.162 354.491L117.159 354.49C93.021 345.921 72.2474 333.569 54.832 317.438C37.4175 301.309 23.9988 281.895 14.5752 259.192C5.15353 236.495 0.438502 211.003 0.438477 182.712V182.497C0.43848 155.352 4.93843 130.647 13.9316 108.377C23.0705 86.1012 35.9196 66.8992 52.4785 50.7686C69.0369 34.6385 88.7379 22.2169 111.586 13.5059V13.5068C134.576 4.79656 159.857 0.438477 187.436 0.438477ZM180.994 140.622C175.174 140.622 170.067 142.37 165.691 145.87C161.32 149.367 157.916 154.451 155.463 161.09L155.462 161.095C153.15 167.596 152.001 175.522 152.001 184.859V185.074C152.001 194.411 153.149 202.477 155.459 209.261V209.262L155.463 209.272C157.916 215.911 161.318 221.062 165.685 224.701L165.691 224.706C170.067 228.206 175.174 229.955 180.994 229.955C189.746 229.955 196.748 225.93 201.973 217.948C207.189 209.978 209.773 199.005 209.773 185.074V184.215C209.773 171.131 207.279 160.756 202.245 153.132L201.751 152.402C196.526 144.571 189.599 140.622 180.994 140.622Z" stroke="url(#paint1_linear_4_1001)" stroke-opacity="0.05" stroke-width="0.87619"/>
<defs>
<linearGradient id="paint0_linear_4_1001" x1="39.8667" y1="13.1429" x2="297.029" y2="283.448" gradientUnits="userSpaceOnUse">
<stop stop-color="#1C1C1C"/>
<stop offset="1" stop-color="#1C1C1C" stop-opacity="0.5"/>
</linearGradient>
<linearGradient id="paint1_linear_4_1001" x1="82.8" y1="-1.27056" x2="278.19" y2="320.248" gradientUnits="userSpaceOnUse">
<stop stop-color="#1C1C1C"/>
<stop offset="0.572115" stop-color="#707070"/>
</linearGradient>
</defs>
</svg>
