<svg width="318" height="48" viewBox="0 0 318 48" fill="none" xmlns="http://www.w3.org/2000/svg">
<g clip-path="url(#clip0_4_1338)">
<path d="M14.9096 47.1962V4.75819H0V0.803743H34.0701V4.75819H19.1605V47.1962H14.9096ZM39.5088 4.75819V0.803743H66.7336V4.75819H39.5088ZM70.5157 47.1962L87.5195 0.803743H90.6764V6.14064H89.5825L75.0167 47.1962H70.5157ZM104.211 47.1962L89.6762 6.14064V0.803743H91.7392L108.68 47.1962H104.211ZM113.65 47.1962V0.803743H118.526L135.28 41.6986H135.436L152.19 0.803743H157.098V47.1962H153.097V9.03415H151.064L155.847 1.80039L137.218 47.1962H133.498L114.869 1.80039L119.652 9.03415H117.62V47.1962H113.65ZM165.287 47.1962V0.803743H172.538L198.92 39.8339L191.293 33.3395H194.699V0.803743H202.701V47.1962H195.512L169.101 8.06965L176.727 14.5319H173.289V47.1962H165.287ZM210.672 47.1962V0.803743H239.866V7.78029H218.737V20.2867H238.709V26.9739H218.737V40.2197H239.866V47.1962H210.672ZM262.715 48C259.255 48 256.234 47.4642 253.651 46.3925C251.066 45.3208 249.025 43.7884 247.524 41.795C246.045 39.8017 245.211 37.4226 245.024 34.6577L244.992 34.1755H252.681L252.744 34.5613C252.973 35.8901 253.535 37.0368 254.432 38.0013C255.328 38.9658 256.505 39.716 257.964 40.2519C259.443 40.7662 261.121 41.0234 262.996 41.0234C264.892 41.0234 266.528 40.7555 267.903 40.2197C269.3 39.6839 270.372 38.9229 271.123 37.937C271.873 36.9296 272.248 35.7615 272.248 34.4326V34.4005C272.248 32.6644 271.612 31.2927 270.341 30.2853C269.091 29.2779 267.007 28.4528 264.09 27.8097L259.245 26.7809C254.827 25.8379 251.514 24.2947 249.306 22.1513C247.096 19.9866 245.992 17.1789 245.992 13.7281V13.6959C246.014 10.9525 246.732 8.56262 248.149 6.52645C249.587 4.46885 251.567 2.87206 254.087 1.7361C256.609 0.578688 259.485 -8.97043e-06 262.715 -8.97043e-06C265.986 -8.97043e-06 268.852 0.557254 271.311 1.67179C273.77 2.78633 275.697 4.34024 277.093 6.33354C278.51 8.32685 279.292 10.6417 279.437 13.2779L279.468 13.8245H271.779L271.717 13.4065C271.529 12.0563 271.04 10.9095 270.248 9.9665C269.455 9.00199 268.414 8.26255 267.122 7.74815C265.829 7.23375 264.34 6.97655 262.653 6.97655C260.902 6.97655 259.381 7.24446 258.088 7.78029C256.817 8.29469 255.827 9.02343 255.12 9.9665C254.432 10.9095 254.087 12.0027 254.087 13.2458V13.2779C254.087 14.9069 254.723 16.2358 255.994 17.2646C257.287 18.2719 259.287 19.0649 261.995 19.6437L266.841 20.6725C269.987 21.3369 272.55 22.2371 274.53 23.3731C276.51 24.509 277.968 25.9344 278.906 27.649C279.865 29.3636 280.344 31.4212 280.344 33.8218V33.8539C280.344 36.7261 279.635 39.2231 278.219 41.3449C276.822 43.4668 274.801 45.1065 272.154 46.2638C269.529 47.4213 266.383 48 262.715 48ZM296.16 47.1962V7.78029H282.657V0.803743H317.665V7.78029H304.192V47.1962H296.16Z" fill="#1C1C1C"/>
<path d="M39.5088 21.5451V25.4996H66.7336V21.5451H39.5088Z" fill="#1C1C1C"/>
<path d="M39.5088 43.2418V47.1962H66.7336V43.2418H39.5088Z" fill="#1C1C1C"/>
</g>
<defs>
<clipPath id="clip0_4_1338">
<rect width="317.665" height="48" fill="white"/>
</clipPath>
</defs>
</svg>
