<svg width="164" height="24" viewBox="0 0 164 24" fill="none" xmlns="http://www.w3.org/2000/svg">
<g clip-path="url(#clip0_63_176)">
<path d="M7.6678 23.5981V2.3791H0V0.401872H17.5218V2.3791H9.85397V23.5981H7.6678ZM20.3188 2.3791V0.401872H34.3201V2.3791H20.3188ZM36.2652 23.5981L45.01 0.401872H46.6336V3.07032H46.071L38.58 23.5981H36.2652ZM53.5941 23.5981L46.1192 3.07032V0.401872H47.1802L55.8928 23.5981H53.5941ZM58.4488 23.5981V0.401872H60.9562L69.5728 20.8493H69.6528L78.2694 0.401872H80.7932V23.5981H78.7356V4.51708H77.6903L80.1501 0.900193L70.5693 23.5981H68.6563L59.0755 0.900193L61.5352 4.51708H60.4906V23.5981H58.4488ZM85.0048 23.5981V0.401872H88.7338L102.302 19.9169L98.3792 16.6698H100.131V0.401872H104.246V23.5981H100.549L86.966 4.03483L90.8884 7.26593H89.12V23.5981H85.0048ZM108.346 23.5981V0.401872H123.36V3.89015H112.493V10.1433H122.765V13.4869H112.493V20.1098H123.36V23.5981H108.346ZM135.11 24C133.331 24 131.778 23.7321 130.449 23.1962C129.12 22.6604 128.07 21.8942 127.298 20.8975C126.537 19.9008 126.109 18.7113 126.012 17.3288L125.996 17.0877H129.95L129.983 17.2806C130.1 17.9451 130.39 18.5184 130.851 19.0007C131.311 19.4829 131.917 19.858 132.667 20.1259C133.428 20.3831 134.291 20.5117 135.255 20.5117C136.23 20.5117 137.072 20.3777 137.779 20.1098C138.497 19.8419 139.049 19.4615 139.435 18.9685C139.82 18.4648 140.013 17.8807 140.013 17.2163V17.2003C140.013 16.3322 139.686 15.6464 139.033 15.1427C138.39 14.639 137.318 14.2264 135.818 13.9049L133.326 13.3905C131.054 12.9189 129.35 12.1473 128.214 11.0757C127.078 9.99331 126.51 8.58944 126.51 6.86405V6.84794C126.521 5.47623 126.891 4.28131 127.62 3.26323C128.359 2.23442 129.377 1.43603 130.674 0.868048C131.97 0.289344 133.45 -4.48522e-06 135.11 -4.48522e-06C136.793 -4.48522e-06 138.267 0.278627 139.531 0.835896C140.796 1.39317 141.787 2.17012 142.505 3.16677C143.234 4.16343 143.636 5.32083 143.711 6.63895L143.726 6.91226H139.772L139.74 6.70327C139.644 6.02814 139.392 5.45477 138.985 4.98325C138.577 4.501 138.042 4.13127 137.377 3.87407C136.712 3.61687 135.946 3.48827 135.079 3.48827C134.178 3.48827 133.396 3.62223 132.731 3.89015C132.077 4.14735 131.568 4.51171 131.204 4.98325C130.851 5.45477 130.674 6.00133 130.674 6.6229V6.63895C130.674 7.45347 131 8.1179 131.654 8.6323C132.319 9.13594 133.348 9.53247 134.741 9.82183L137.233 10.3362C138.85 10.6684 140.169 11.1185 141.187 11.6865C142.205 12.2545 142.955 12.9672 143.437 13.8245C143.93 14.6818 144.177 15.7106 144.177 16.9109V16.927C144.177 18.363 143.812 19.6115 143.084 20.6724C142.365 21.7334 141.326 22.5533 139.965 23.1319C138.615 23.7106 136.997 24 135.11 24ZM152.311 23.5981V3.89015H145.367V0.401872H163.371V3.89015H156.442V23.5981H152.311Z" fill="white"/>
<path d="M20.3188 10.7726V12.7498H34.3201V10.7726H20.3188Z" fill="white"/>
<path d="M20.3188 21.6209V23.5981H34.3201V21.6209H20.3188Z" fill="white"/>
</g>
<defs>
<clipPath id="clip0_63_176">
<rect width="163.371" height="24" fill="white"/>
</clipPath>
</defs>
</svg>
