<svg width="415" height="284" viewBox="0 0 415 284" fill="none" xmlns="http://www.w3.org/2000/svg">
<path d="M225.193 420C191.704 420 161.156 415.018 133.547 405.053C105.939 395.252 82.1704 381.12 62.2404 362.66C42.3104 344.201 26.9545 321.984 16.1727 296.009C5.39091 270.036 0 240.875 0 208.53V208.285C0 177.247 5.14586 148.985 15.4376 123.501C25.8927 98.0168 40.5952 76.0444 59.545 57.5847C78.4949 39.1249 101.039 24.9125 127.176 14.9475C153.478 4.9825 182.392 0 213.921 0C254.761 0 290.21 7.84131 320.268 23.5239C350.327 39.2066 373.606 61.3419 390.105 89.9301C406.605 118.355 414.854 151.681 414.854 189.907V190.152C414.854 215.309 411.097 237.281 403.583 256.068C396.232 274.855 385.858 289.393 372.462 299.685C359.067 309.977 343.302 315.123 325.169 315.123C310.303 315.123 297.071 312.019 285.473 305.812C273.874 299.603 264.971 290.945 258.763 279.837L255.088 273.22H253.128C246.266 287.597 237.036 298.541 225.437 306.056C214.003 313.571 200.688 317.328 185.496 317.328C169.16 317.328 154.702 312.918 142.124 304.096C129.545 295.111 119.662 282.533 112.474 266.36C105.449 250.023 101.937 230.91 101.937 209.02V208.775C101.937 188.681 105.612 170.875 112.964 155.356C120.315 139.836 130.281 127.666 142.859 118.845C155.438 110.023 169.568 105.613 185.251 105.613C199.3 105.613 211.552 108.962 222.007 115.659C232.626 122.357 240.467 131.669 245.532 143.594H247.492V111.738H309.732V221.518C309.732 234.096 311.611 243.898 315.367 250.922C319.125 257.783 324.435 261.214 331.295 261.214C337.013 261.214 341.996 258.436 346.243 252.882C350.491 247.328 353.757 239.487 356.044 229.358C358.332 219.23 359.475 207.386 359.475 193.827V193.582C359.475 163.524 353.594 137.549 341.832 115.659C330.233 93.7694 313.571 76.8612 291.844 64.9359C270.117 53.0106 244.142 47.0479 213.921 47.0479C190.233 47.0479 168.67 50.8868 149.23 58.5648C129.79 66.2428 113.045 77.1879 98.9968 91.4003C85.1109 105.613 74.3291 122.684 66.6512 142.614C59.1366 162.381 55.3793 184.434 55.3793 208.775V209.02C55.3793 243.489 62.4855 272.894 76.6979 297.235C91.0735 321.412 111.412 339.872 137.713 352.614C164.177 365.356 195.624 371.727 232.054 371.727C241.529 371.727 250.922 371.237 260.234 370.257C269.545 369.277 278.775 367.806 287.923 365.846C297.071 363.886 306.056 361.436 314.878 358.495V406.033C300.502 410.771 285.963 414.282 271.261 416.569C256.558 418.856 241.202 420 225.193 420ZM206.57 261.949C216.371 261.949 224.213 257.457 230.094 248.472C235.974 239.487 238.915 227.071 238.915 211.226V210.245C238.915 194.889 235.892 182.883 229.849 174.224C223.967 165.402 216.208 160.992 206.57 160.992C200.035 160.992 194.318 162.952 189.417 166.873C184.515 170.793 180.677 176.511 177.9 184.026C175.286 191.377 173.98 200.362 173.98 210.981V211.226C173.98 221.843 175.286 230.992 177.9 238.67C180.677 246.185 184.515 251.984 189.417 256.068C194.318 259.989 200.035 261.949 206.57 261.949Z" fill="url(#paint0_linear_4_761)" fill-opacity="0.05"/>
<path d="M213.921 0.5C254.697 0.5 290.063 8.32841 320.037 23.9668C350.013 39.6067 373.221 61.6763 389.672 90.1797L389.673 90.1807C406.121 118.518 414.354 151.755 414.354 189.907V190.151C414.354 215.26 410.604 237.168 403.118 255.883L403.117 255.886C395.793 274.604 385.468 289.061 372.157 299.288C358.856 309.508 343.201 314.623 325.17 314.623C310.375 314.623 297.226 311.535 285.709 305.371C274.192 299.206 265.359 290.615 259.199 279.593L255.525 272.978L255.382 272.721H252.812L252.677 273.005C245.849 287.311 236.676 298.179 225.166 305.637L225.163 305.639C213.819 313.093 200.602 316.828 185.496 316.828C169.764 316.828 155.798 312.715 143.587 304.495L142.411 303.687C130.307 295.039 120.704 283.037 113.609 267.656L112.931 266.157C105.94 249.897 102.437 230.855 102.437 209.021V208.774C102.437 188.743 106.101 171.012 113.416 155.57C120.734 140.119 130.646 128.02 143.146 119.254C155.639 110.493 169.669 106.113 185.251 106.113C199.217 106.113 211.373 109.441 221.737 116.08L221.74 116.082C232.27 122.724 240.045 131.955 245.071 143.789L245.201 144.094H247.992V112.238H309.231V221.518C309.231 234.135 311.115 244.031 314.927 251.158L314.929 251.162C318.759 258.156 324.223 261.714 331.295 261.714C337.203 261.714 342.322 258.833 346.641 253.187C350.948 247.555 354.236 239.636 356.532 229.469C358.83 219.296 359.975 207.412 359.975 193.827V193.582C359.975 163.459 354.08 137.399 342.271 115.422C330.627 93.4477 313.896 76.4696 292.084 64.498C270.269 52.5243 244.208 46.5479 213.921 46.5479C190.179 46.5479 168.552 50.3957 149.047 58.0996C129.545 65.8019 112.741 76.7849 98.6416 91.0488L98.6396 91.0508C84.7028 105.315 73.885 122.446 66.1846 142.435L66.1836 142.437C58.6445 162.267 54.8789 184.382 54.8789 208.774V209.021C54.8789 243.558 61.9997 273.055 76.2656 297.487L76.2686 297.49C90.6963 321.755 111.11 340.282 137.495 353.064H137.496C164.043 365.846 195.567 372.227 232.054 372.227C241.546 372.227 250.957 371.736 260.286 370.755C269.615 369.772 278.862 368.299 288.027 366.335C296.967 364.42 305.75 362.036 314.378 359.186V405.669C300.14 410.341 285.742 413.811 271.184 416.075C256.509 418.358 241.178 419.5 225.192 419.5C191.753 419.5 161.263 414.526 133.717 404.583V404.582H133.715C106.166 394.802 82.4565 380.704 62.5801 362.294C42.7048 343.885 27.39 321.728 16.6348 295.817C5.88176 269.913 0.5 240.819 0.5 208.529V208.285C0.5 177.303 5.6356 149.105 15.9004 123.688C26.3306 98.2652 40.9955 76.3517 59.8936 57.9424C78.7916 39.5331 101.277 25.357 127.354 15.415L127.353 15.4141C153.591 5.4729 182.445 0.500003 213.921 0.5ZM206.569 160.492C199.927 160.492 194.098 162.488 189.104 166.482C184.115 170.473 180.231 176.276 177.431 183.853L177.429 183.858C174.79 191.279 173.48 200.324 173.479 210.98V211.226C173.479 221.549 174.71 230.511 177.184 238.101L177.427 238.831L177.431 238.843C180.143 246.183 183.872 251.93 188.633 256.058L189.097 256.452L189.104 256.458C194.098 260.452 199.927 262.449 206.569 262.449C216.557 262.449 224.549 257.856 230.512 248.746C236.465 239.649 239.415 227.125 239.415 211.226V210.245C239.415 195.313 236.568 183.472 230.823 174.771L230.259 173.938C224.296 164.999 216.39 160.492 206.569 160.492Z" stroke="url(#paint1_linear_4_761)" stroke-opacity="0.05"/>
<defs>
<linearGradient id="paint0_linear_4_761" x1="45.5" y1="15" x2="339" y2="323.5" gradientUnits="userSpaceOnUse">
<stop/>
<stop offset="1" stop-opacity="0.5"/>
</linearGradient>
<linearGradient id="paint1_linear_4_761" x1="94.5" y1="-1.4501" x2="317.5" y2="365.5" gradientUnits="userSpaceOnUse">
<stop/>
<stop offset="0.572115" stop-color="#707070"/>
</linearGradient>
</defs>
</svg>
