<svg width="24" height="24" viewBox="0 0 24 24" fill="none" xmlns="http://www.w3.org/2000/svg">
<path d="M12 3C16.9706 3 21 7.02938 21 12C21 16.9706 16.9706 21 12 21C7.02938 21 3 16.9706 3 12C3 7.02938 7.02938 3 12 3ZM15.1046 15.6686C15.27 15.1609 16.0459 10.0988 16.1415 9.10125C16.1704 8.799 16.0751 8.59838 15.888 8.50875C15.6619 8.4 15.327 8.45438 14.9381 8.59463C14.4052 8.78663 7.59188 11.6797 7.19812 11.847C6.825 12.0056 6.47175 12.1785 6.47175 12.429C6.47175 12.6053 6.57638 12.7043 6.86438 12.807C7.164 12.9139 7.91887 13.1426 8.36475 13.2656C8.79413 13.3841 9.28275 13.2814 9.5565 13.1111C9.84675 12.9308 13.1978 10.6886 13.4381 10.4921C13.6785 10.2956 13.8701 10.5473 13.6736 10.7441C13.4771 10.9406 11.1773 13.173 10.8739 13.482C10.5056 13.8574 10.767 14.2462 11.0141 14.4019C11.2961 14.5796 13.3252 15.9405 13.6309 16.1588C13.9365 16.377 14.2463 16.476 14.5301 16.476C14.814 16.476 14.9633 16.1025 15.1046 15.6686Z" fill="#1C1C1C"/>
</svg>
