<svg width="1312" height="396" viewBox="0 0 1312 396" fill="none" xmlns="http://www.w3.org/2000/svg">
<path d="M40.9562 151.866H180.388V189.168H40.9562V151.866ZM184.762 70.0588V107.618H41.4707L63.5946 85.2368V263H19.8613V70.0588H184.762ZM291.056 266.859C272.877 266.859 256.927 263.686 243.207 257.34C229.487 250.823 218.768 241.819 211.05 230.329C203.332 218.666 199.473 205.203 199.473 189.94C199.473 174.504 203.332 161.041 211.05 149.551C218.768 137.888 229.487 128.884 243.207 122.539C256.927 116.022 272.877 112.763 291.056 112.763C309.236 112.763 325.185 116.022 338.906 122.539C352.626 128.884 363.259 137.888 370.805 149.551C378.523 161.041 382.382 174.504 382.382 189.94C382.382 205.203 378.523 218.666 370.805 230.329C363.259 241.819 352.626 250.823 338.906 257.34C325.185 263.686 309.236 266.859 291.056 266.859ZM291.056 234.187C301.003 234.187 309.493 232.387 316.524 228.785C323.728 225.184 329.216 220.124 332.989 213.607C336.933 206.918 338.906 199.029 338.906 189.94C338.906 180.678 336.933 172.789 332.989 166.272C329.216 159.584 323.728 154.438 316.524 150.837C309.493 147.235 301.003 145.435 291.056 145.435C281.281 145.435 272.791 147.235 265.588 150.837C258.385 154.438 252.811 159.584 248.866 166.272C245.093 172.789 243.207 180.678 243.207 189.94C243.207 199.029 245.093 206.918 248.866 213.607C252.811 220.124 258.385 225.184 265.588 228.785C272.791 232.387 281.281 234.187 291.056 234.187ZM469.416 266.859C455.868 266.859 444.291 264.115 434.687 258.627C425.254 252.967 417.965 244.992 412.82 234.702C407.847 224.412 405.36 212.235 405.36 198.172V116.622H448.321V191.74C448.321 204.775 451.408 214.722 457.583 221.582C463.757 228.271 472.503 231.615 483.823 231.615C492.226 231.615 499.344 229.9 505.175 226.47C511.177 222.868 515.808 217.723 519.066 211.035C522.325 204.346 523.954 196.542 523.954 187.624L537.846 195.085C536.131 210.177 532.101 223.125 525.755 233.93C519.409 244.563 511.349 252.71 501.573 258.369C491.969 264.029 481.25 266.859 469.416 266.859ZM532.958 263L523.954 207.433V116.622H566.916V213.864L575.92 263H532.958ZM594.418 116.622H637.38L646.641 172.446V263H603.679V166.015L594.418 116.622ZM702.465 112.763C716.357 112.763 728.191 115.593 737.966 121.253C747.742 126.741 755.202 134.63 760.347 144.92C765.493 155.21 768.065 167.473 768.065 181.707V263H725.104V188.139C725.104 174.933 721.931 164.986 715.585 158.297C709.239 151.437 699.978 148.007 687.802 148.007C679.569 148.007 672.281 149.894 665.935 153.667C659.761 157.268 654.959 162.328 651.529 168.845C648.27 175.362 646.641 183.165 646.641 192.255L632.492 184.795C634.207 169.359 638.323 156.325 644.84 145.692C651.357 135.059 659.589 126.912 669.536 121.253C679.484 115.593 690.46 112.763 702.465 112.763ZM933.126 263L926.952 207.69L935.184 190.197L927.209 168.845L938.786 64.9137H983.291L969.142 186.853L977.631 263H933.126ZM943.674 189.94C940.93 205.375 935.87 218.924 928.496 230.586C921.293 242.077 912.117 250.995 900.969 257.34C889.993 263.686 877.645 266.859 863.925 266.859C849.69 266.859 837.084 263.686 826.108 257.34C815.132 250.823 806.557 241.819 800.383 230.329C794.38 218.666 791.379 205.203 791.379 189.94C791.379 174.504 794.38 161.041 800.383 149.551C806.557 137.888 815.132 128.884 826.108 122.539C837.084 116.022 849.69 112.763 863.925 112.763C877.645 112.763 889.993 115.936 900.969 122.282C912.117 128.627 921.378 137.631 928.753 149.293C936.128 160.784 941.101 174.333 943.674 189.94ZM834.855 189.94C834.855 198.515 836.57 206.061 840 212.578C843.602 219.095 848.489 224.24 854.664 228.013C860.838 231.615 867.955 233.416 876.016 233.416C884.076 233.416 891.623 231.615 898.654 228.013C905.857 224.24 912.203 219.095 917.691 212.578C923.179 206.061 927.467 198.515 930.554 189.94C927.467 181.364 923.179 173.818 917.691 167.301C912.203 160.613 905.857 155.467 898.654 151.866C891.623 148.093 884.076 146.206 876.016 146.206C867.955 146.206 860.838 148.093 854.664 151.866C848.489 155.467 843.602 160.613 840 167.301C836.57 173.818 834.855 181.364 834.855 189.94ZM1088.16 266.859C1070.84 266.859 1055.32 263.686 1041.6 257.34C1028.05 250.823 1017.33 241.734 1009.44 230.071C1001.73 218.409 997.868 204.86 997.868 189.425C997.868 174.161 1001.56 160.784 1008.93 149.293C1016.48 137.803 1026.77 128.884 1039.8 122.539C1052.83 116.022 1067.67 112.763 1084.31 112.763C1101.28 112.763 1115.86 116.536 1128.04 124.082C1140.22 131.457 1149.56 141.919 1156.08 155.467C1162.77 169.016 1166.11 184.966 1166.11 203.317H1032.34V174.762H1142.96L1126.24 185.052C1125.55 176.477 1123.41 169.188 1119.81 163.185C1116.38 157.182 1111.66 152.552 1105.66 149.293C1099.66 146.035 1092.62 144.405 1084.56 144.405C1075.82 144.405 1068.18 146.206 1061.67 149.808C1055.32 153.238 1050.35 158.126 1046.75 164.471C1043.32 170.645 1041.6 177.934 1041.6 186.338C1041.6 196.457 1043.83 205.118 1048.29 212.321C1052.75 219.524 1059.27 225.012 1067.84 228.785C1076.42 232.558 1086.79 234.445 1098.97 234.445C1109.95 234.445 1121.01 232.901 1132.16 229.814C1143.3 226.556 1153.34 222.011 1162.25 216.18V244.992C1152.65 251.852 1141.42 257.255 1128.55 261.199C1115.86 264.972 1102.4 266.859 1088.16 266.859ZM1183.79 116.622H1227.27L1236.02 169.359V263H1193.05V164.729L1183.79 116.622ZM1307.28 115.078V152.123C1302.82 151.094 1298.36 150.322 1293.9 149.808C1289.44 149.293 1285.24 149.036 1281.29 149.036C1272.72 149.036 1265 150.837 1258.14 154.438C1251.28 158.04 1245.88 163.614 1241.93 171.16C1237.99 178.706 1236.02 188.225 1236.02 199.715L1227.01 188.911C1228.04 178.449 1229.93 168.673 1232.67 159.584C1235.42 150.322 1239.19 142.262 1243.99 135.402C1248.96 128.37 1255.05 122.882 1262.26 118.937C1269.46 114.821 1278.03 112.763 1287.98 112.763C1291.24 112.763 1294.5 113.02 1297.76 113.535C1301.19 113.878 1304.36 114.392 1307.28 115.078Z" fill="#1C1C1C"/>
<path d="M17.7891 382.562C14.6016 382.562 11.8281 381.852 9.46875 380.43C7.125 379.008 5.3125 376.992 4.03125 374.383C2.75 371.758 2.10938 368.656 2.10938 365.078V365.055C2.10938 361.477 2.75 358.383 4.03125 355.773C5.3125 353.164 7.125 351.156 9.46875 349.75C11.8125 348.328 14.5859 347.617 17.7891 347.617C20.2734 347.617 22.5156 348.094 24.5156 349.047C26.5156 350 28.1641 351.32 29.4609 353.008C30.7578 354.695 31.5781 356.656 31.9219 358.891L31.9453 359.125H26.7188L26.5781 358.656C26.2188 357.328 25.6328 356.188 24.8203 355.234C24.0234 354.281 23.0312 353.555 21.8438 353.055C20.6719 352.539 19.3203 352.281 17.7891 352.281C15.6953 352.281 13.875 352.805 12.3281 353.852C10.7969 354.898 9.60938 356.375 8.76562 358.281C7.92188 360.188 7.5 362.445 7.5 365.055V365.078C7.5 367.672 7.92188 369.938 8.76562 371.875C9.60938 373.797 10.8047 375.281 12.3516 376.328C13.8984 377.375 15.7109 377.898 17.7891 377.898C19.2891 377.898 20.625 377.648 21.7969 377.148C22.9844 376.633 23.9922 375.883 24.8203 374.898C25.6484 373.914 26.2656 372.711 26.6719 371.289L26.7422 371.055H31.9688L31.9219 371.289C31.5781 373.539 30.7578 375.516 29.4609 377.219C28.1797 378.906 26.5391 380.219 24.5391 381.156C22.5391 382.094 20.2891 382.562 17.7891 382.562ZM47.0859 382.492C44.6797 382.492 42.6016 381.977 40.8516 380.945C39.1172 379.898 37.7812 378.422 36.8438 376.516C35.9219 374.594 35.4609 372.336 35.4609 369.742V369.719C35.4609 367.156 35.9297 364.914 36.8672 362.992C37.8047 361.055 39.125 359.555 40.8281 358.492C42.5312 357.414 44.5312 356.875 46.8281 356.875C49.1406 356.875 51.125 357.391 52.7812 358.422C54.4531 359.438 55.7422 360.883 56.6484 362.758C57.5547 364.617 58.0078 366.781 58.0078 369.25V370.961H37.9688V367.375H55.5469L53.0391 370.727V368.758C53.0391 367.023 52.7734 365.586 52.2422 364.445C51.7266 363.289 51 362.43 50.0625 361.867C49.1406 361.305 48.0703 361.023 46.8516 361.023C45.6484 361.023 44.5703 361.32 43.6172 361.914C42.6641 362.508 41.9141 363.383 41.3672 364.539C40.8203 365.68 40.5469 367.086 40.5469 368.758V370.727C40.5469 372.32 40.8125 373.688 41.3438 374.828C41.8906 375.953 42.6641 376.82 43.6641 377.43C44.6641 378.023 45.8438 378.32 47.2031 378.32C48.2031 378.32 49.0859 378.172 49.8516 377.875C50.6172 377.562 51.25 377.156 51.75 376.656C52.2656 376.141 52.625 375.57 52.8281 374.945L52.8984 374.758H57.7266L57.6797 375.016C57.4766 375.984 57.0938 376.914 56.5312 377.805C55.9688 378.695 55.2344 379.5 54.3281 380.219C53.4375 380.922 52.3828 381.477 51.1641 381.883C49.9453 382.289 48.5859 382.492 47.0859 382.492ZM42.3516 353.57C41.5859 353.57 40.9375 353.312 40.4062 352.797C39.875 352.266 39.6094 351.625 39.6094 350.875C39.6094 350.125 39.875 349.492 40.4062 348.977C40.9375 348.445 41.5859 348.18 42.3516 348.18C43.1172 348.18 43.7578 348.445 44.2734 348.977C44.8047 349.492 45.0703 350.125 45.0703 350.875C45.0703 351.625 44.8047 352.266 44.2734 352.797C43.7578 353.312 43.1172 353.57 42.3516 353.57ZM51.5859 353.57C50.8359 353.57 50.1953 353.312 49.6641 352.797C49.1328 352.266 48.8672 351.625 48.8672 350.875C48.8672 350.125 49.1328 349.492 49.6641 348.977C50.1953 348.445 50.8359 348.18 51.5859 348.18C52.3672 348.18 53.0156 348.445 53.5312 348.977C54.0625 349.492 54.3281 350.125 54.3281 350.875C54.3281 351.625 54.0625 352.266 53.5312 352.797C53.0156 353.312 52.3672 353.57 51.5859 353.57ZM67.2891 382H62.3438V357.344H68.7656L76.6172 375.391H76.8047L84.7031 357.344H90.9609V382H86.0156V364.891H85.8281L78.4922 381.039H74.7891L67.4531 364.891H67.2891V382ZM96.375 382V357.344H101.414V374.57H103.875L100.359 376.492L112.945 357.344H117.961V382H112.898V364.703H110.461L113.953 362.781L101.367 382H96.375ZM139.547 382V371.289H128.461V382H123.375V357.344H128.461V367.258H139.547V357.344H144.633V382H139.547ZM175.008 382.562C171.742 382.562 168.922 381.859 166.547 380.453C164.172 379.031 162.344 377.016 161.062 374.406C159.781 371.781 159.141 368.68 159.141 365.102V365.055C159.141 361.477 159.781 358.383 161.062 355.773C162.359 353.164 164.195 351.156 166.57 349.75C168.945 348.328 171.758 347.617 175.008 347.617C178.242 347.617 181.047 348.328 183.422 349.75C185.797 351.172 187.625 353.188 188.906 355.797C190.188 358.391 190.828 361.477 190.828 365.055V365.102C190.828 368.68 190.188 371.773 188.906 374.383C187.625 376.992 185.797 379.008 183.422 380.43C181.062 381.852 178.258 382.562 175.008 382.562ZM175.008 377.898C177.164 377.898 179.023 377.375 180.586 376.328C182.148 375.281 183.352 373.797 184.195 371.875C185.039 369.953 185.461 367.695 185.461 365.102V365.055C185.461 362.445 185.031 360.188 184.172 358.281C183.328 356.359 182.117 354.883 180.539 353.852C178.977 352.805 177.133 352.281 175.008 352.281C172.867 352.281 171.008 352.797 169.43 353.828C167.867 354.859 166.656 356.336 165.797 358.258C164.938 360.164 164.508 362.43 164.508 365.055V365.102C164.508 367.711 164.938 369.977 165.797 371.898C166.656 373.82 167.867 375.305 169.43 376.352C170.992 377.383 172.852 377.898 175.008 377.898ZM202.781 370.938C202.625 373.234 202.289 375.234 201.773 376.938C201.273 378.625 200.492 379.93 199.43 380.852C198.383 381.773 196.93 382.234 195.07 382.234C194.602 382.234 194.195 382.203 193.852 382.141C193.508 382.094 193.242 382.039 193.055 381.977V377.547C193.18 377.578 193.352 377.609 193.57 377.641C193.789 377.672 194.055 377.688 194.367 377.688C195.227 377.688 195.906 377.414 196.406 376.867C196.906 376.32 197.281 375.523 197.531 374.477C197.797 373.43 197.984 372.156 198.094 370.656L198.961 357.344H217.031V382H211.922V361.398H203.461L202.781 370.938ZM233.039 382.492C230.633 382.492 228.555 381.977 226.805 380.945C225.07 379.898 223.734 378.422 222.797 376.516C221.875 374.594 221.414 372.336 221.414 369.742V369.719C221.414 367.156 221.883 364.914 222.82 362.992C223.758 361.055 225.078 359.555 226.781 358.492C228.484 357.414 230.484 356.875 232.781 356.875C235.094 356.875 237.078 357.391 238.734 358.422C240.406 359.438 241.695 360.883 242.602 362.758C243.508 364.617 243.961 366.781 243.961 369.25V370.961H223.922V367.375H241.5L238.992 370.727V368.758C238.992 367.023 238.727 365.586 238.195 364.445C237.68 363.289 236.953 362.43 236.016 361.867C235.094 361.305 234.023 361.023 232.805 361.023C231.602 361.023 230.523 361.32 229.57 361.914C228.617 362.508 227.867 363.383 227.32 364.539C226.773 365.68 226.5 367.086 226.5 368.758V370.727C226.5 372.32 226.766 373.688 227.297 374.828C227.844 375.953 228.617 376.82 229.617 377.43C230.617 378.023 231.797 378.32 233.156 378.32C234.156 378.32 235.039 378.172 235.805 377.875C236.57 377.562 237.203 377.156 237.703 376.656C238.219 376.141 238.578 375.57 238.781 374.945L238.852 374.758H243.68L243.633 375.016C243.43 375.984 243.047 376.914 242.484 377.805C241.922 378.695 241.188 379.5 240.281 380.219C239.391 380.922 238.336 381.477 237.117 381.883C235.898 382.289 234.539 382.492 233.039 382.492ZM264.633 361.375H253.383V382H248.297V357.344H264.633V361.375Z" fill="#1C1C1C"/>
<path d="M1233.58 382.562C1230.39 382.562 1227.62 381.852 1225.26 380.43C1222.91 379.008 1221.1 376.992 1219.82 374.383C1218.54 371.758 1217.9 368.656 1217.9 365.078V365.055C1217.9 361.477 1218.54 358.383 1219.82 355.773C1221.1 353.164 1222.91 351.156 1225.26 349.75C1227.6 348.328 1230.38 347.617 1233.58 347.617C1236.06 347.617 1238.3 348.094 1240.3 349.047C1242.3 350 1243.95 351.32 1245.25 353.008C1246.55 354.695 1247.37 356.656 1247.71 358.891L1247.73 359.125H1242.51L1242.37 358.656C1242.01 357.328 1241.42 356.188 1240.61 355.234C1239.81 354.281 1238.82 353.555 1237.63 353.055C1236.46 352.539 1235.11 352.281 1233.58 352.281C1231.48 352.281 1229.66 352.805 1228.12 353.852C1226.59 354.898 1225.4 356.375 1224.55 358.281C1223.71 360.188 1223.29 362.445 1223.29 365.055V365.078C1223.29 367.672 1223.71 369.938 1224.55 371.875C1225.4 373.797 1226.59 375.281 1228.14 376.328C1229.69 377.375 1231.5 377.898 1233.58 377.898C1235.08 377.898 1236.41 377.648 1237.59 377.148C1238.77 376.633 1239.78 375.883 1240.61 374.898C1241.44 373.914 1242.05 372.711 1242.46 371.289L1242.53 371.055H1247.76L1247.71 371.289C1247.37 373.539 1246.55 375.516 1245.25 377.219C1243.97 378.906 1242.33 380.219 1240.33 381.156C1238.33 382.094 1236.08 382.562 1233.58 382.562ZM1252.54 382V348.18H1274.01V352.727H1257.79V362.57H1273.14V366.977H1257.79V377.453H1274.01V382H1252.54ZM1294.09 382.562C1290.83 382.562 1288.01 381.859 1285.63 380.453C1283.26 379.031 1281.43 377.016 1280.15 374.406C1278.87 371.781 1278.23 368.68 1278.23 365.102V365.055C1278.23 361.477 1278.87 358.383 1280.15 355.773C1281.45 353.164 1283.28 351.156 1285.66 349.75C1288.03 348.328 1290.84 347.617 1294.09 347.617C1297.33 347.617 1300.13 348.328 1302.51 349.75C1304.88 351.172 1306.71 353.188 1307.99 355.797C1309.27 358.391 1309.91 361.477 1309.91 365.055V365.102C1309.91 368.68 1309.27 371.773 1307.99 374.383C1306.71 376.992 1304.88 379.008 1302.51 380.43C1300.15 381.852 1297.34 382.562 1294.09 382.562ZM1294.09 377.898C1296.25 377.898 1298.11 377.375 1299.67 376.328C1301.23 375.281 1302.44 373.797 1303.28 371.875C1304.12 369.953 1304.55 367.695 1304.55 365.102V365.055C1304.55 362.445 1304.12 360.188 1303.26 358.281C1302.41 356.359 1301.2 354.883 1299.62 353.852C1298.06 352.805 1296.22 352.281 1294.09 352.281C1291.95 352.281 1290.09 352.797 1288.52 353.828C1286.95 354.859 1285.74 356.336 1284.88 358.258C1284.02 360.164 1283.59 362.43 1283.59 365.055V365.102C1283.59 367.711 1284.02 369.977 1284.88 371.898C1285.74 373.82 1286.95 375.305 1288.52 376.352C1290.08 377.383 1291.94 377.898 1294.09 377.898Z" fill="#1C1C1C"/>
</svg>
