<svg width="40" height="40" viewBox="0 0 40 40" fill="none" xmlns="http://www.w3.org/2000/svg">
<rect width="40" height="40" rx="20" fill="white"/>
<path d="M22.8886 18.1791L22.8723 18.1975C22.8752 18.1996 22.8805 18.2049 22.884 18.2074L22.8886 18.1791ZM37.925 39.9999C37.3884 33.1808 36.6215 26.701 35.4542 25.2652C33.8514 23.2906 25.1695 20.8463 25.1695 20.8463C25.1695 20.8463 22.9144 26.7399 22.7892 27.1577C22.7156 27.3682 21.4651 26.2553 21.3958 26.4683C20.5914 29.5709 18.793 34.8533 18.2206 37.9316L18.2061 26.7696L19.4273 25.1753L17.9621 23.8538L23.0188 18.9983C23.0117 18.9934 22.8543 18.1837 22.8497 18.1815C22.7351 16.3141 23.1691 14.7234 23.3421 14.1606C24.0054 14.364 24.7383 12.0625 24.999 11.2843C25.2587 10.5061 24.7387 9.92276 24.7387 9.92276C24.7719 9.79117 24.7376 9.76889 25.1281 9.14348C25.4532 8.6256 24.935 4.86357 24.5445 3.69658C24.1557 2.5296 23.1829 1.81539 21.4956 1.16734C19.8107 0.518937 17.5404 0 16.4378 0C15.3359 0 14.9475 0.583318 14.6228 0.908759C14.6228 0.908759 13.8442 1.03717 13.2609 1.03717C12.6768 1.03717 11.8077 1.901 11.2414 2.71955C10.34 4.02026 10.3404 6.87777 10.4217 7.7172C10.6191 9.75792 10.9265 10.1184 11.096 10.1492C10.9616 10.1937 10.7479 10.2804 10.6106 10.4056C10.1342 10.8411 11.1929 13.5256 11.3878 13.8493C11.5817 14.174 11.7691 14.203 11.7691 14.203C11.7691 14.203 12.0726 15.0516 12.223 15.5005C12.4699 16.2328 13.1933 16.7057 13.1951 16.7319C13.2234 17.0237 13.8322 18.4536 14.0157 20.0012C13.9301 20.0663 13.8233 20.1536 13.7059 20.2509L13.7158 20.3231L16.6412 23.9677L15.3341 25.2174L16.1095 26.7689L14.6012 37.7582L13.2223 26.6395L12.2739 27.4152L11.8289 21.7264L11.432 22.0161C9.62229 22.9577 3.73499 25.9196 3.23516 27.6667C2.94934 28.6682 2.41519 34.3001 2.07489 39.9988H37.925V39.9999Z" fill="#1C1C1C"/>
<path d="M22.9328 18.8256C22.2865 18.3947 14.7161 19.4001 14.7161 19.4001L14.0911 19.4432L10.7079 22.4168L10.7942 22.8048L11.2251 22.9339L11.4981 22.2445L13.8827 20.1472L16.1806 22.2445L19.8892 22.0149L22.9038 19.2278L25.0874 21.0092L25.2091 21.7273L26.1787 21.4687C26.1794 21.4684 23.5794 19.2565 22.9328 18.8256Z" fill="#1C1C1C"/>
</svg>
