<svg width="32" height="32" viewBox="0 0 32 32" fill="none" xmlns="http://www.w3.org/2000/svg">
<path d="M15.9999 4C22.6274 4 27.9999 9.3725 27.9999 16C27.9999 22.6275 22.6274 28 15.9999 28C9.37241 28 3.99991 22.6275 3.99991 16C3.99991 9.3725 9.37241 4 15.9999 4ZM20.1394 20.8915C20.3599 20.2145 21.3944 13.465 21.5219 12.135C21.5604 11.732 21.4334 11.4645 21.1839 11.345C20.8824 11.2 20.4359 11.2725 19.9174 11.4595C19.2069 11.7155 10.1224 15.573 9.59741 15.796C9.09991 16.0075 8.62891 16.238 8.62891 16.572C8.62891 16.807 8.76841 16.939 9.15241 17.076C9.55191 17.2185 10.5584 17.5235 11.1529 17.6875C11.7254 17.8455 12.3769 17.7085 12.7419 17.4815C13.1289 17.241 17.5969 14.2515 17.9174 13.9895C18.2379 13.7275 18.4934 14.063 18.2314 14.3255C17.9694 14.5875 14.9029 17.564 14.4984 17.976C14.0074 18.4765 14.3559 18.995 14.6854 19.2025C15.0614 19.4395 17.7669 21.254 18.1744 21.545C18.5819 21.836 18.9949 21.968 19.3734 21.968C19.7519 21.968 19.9509 21.47 20.1394 20.8915Z" fill="#1C1C1C"/>
</svg>
