<svg width="32" height="32" viewBox="0 0 32 32" fill="none" xmlns="http://www.w3.org/2000/svg">
<path d="M28.0001 24.6667C28.0001 26.508 26.5081 28 24.6667 28H7.33341C5.49274 28 4.00008 26.508 4.00008 24.6667V7.33333C4.00008 5.492 5.49274 4 7.33341 4H24.6667C26.5081 4 28.0001 5.492 28.0001 7.33333V24.6667Z" fill="#1C1C1C"/>
<path d="M23.9581 12.0273C23.9887 11.9266 24.0034 11.8333 23.9994 11.7499C23.9894 11.5086 23.8234 11.3333 23.4327 11.3333H21.6874C21.2467 11.3333 21.0434 11.5999 20.9247 11.8673C20.9247 11.8673 19.8367 14.1066 18.5827 15.5833C18.1761 16.0106 17.9694 15.9999 17.7494 15.9999C17.6314 15.9999 17.3334 15.8573 17.3334 15.4659V12.0093C17.3334 11.5466 17.2181 11.3333 16.8454 11.3333H13.7461C13.4747 11.3333 13.3334 11.5466 13.3334 11.7606C13.3334 12.2053 13.9321 12.3119 14.0001 13.5579V15.9733C14.0001 16.5599 13.8981 16.6666 13.6781 16.6666C13.0847 16.6666 11.9167 14.6666 11.1347 12.0453C10.9654 11.5293 10.7961 11.3333 10.3554 11.3333H8.59341C8.08474 11.3333 8.00008 11.5826 8.00008 11.8493C8.00008 12.3299 8.40008 14.9286 10.5834 17.9166C12.1667 20.0833 14.2527 21.3333 16.0994 21.3333C17.2181 21.3333 17.3327 21.0486 17.3327 20.6039V18.6226C17.3334 18.0886 17.4554 17.9999 17.8114 17.9999C18.0654 17.9999 18.5834 18.1666 19.5834 19.3333C20.7367 20.6786 20.9461 21.3333 21.6074 21.3333H23.3527C23.7581 21.3333 23.9907 21.1633 24.0001 20.8333C24.0021 20.7493 23.9901 20.6553 23.9627 20.5506C23.8334 20.1666 23.2401 19.2279 22.5001 18.3333C22.0901 17.8379 21.6854 17.3473 21.4994 17.0806C21.3747 16.9066 21.3274 16.7839 21.3334 16.6666C21.3394 16.5433 21.4034 16.4259 21.4994 16.2619C21.4821 16.2619 23.7381 13.0946 23.9581 12.0273Z" fill="white"/>
</svg>
